# xmcd CD database file
#
# Track frame offsets:
#	150
#	15695
#	32572
#	59998
#	92250
#	111745
#	137521
#	167993
#	200218
#	233372
#	259545
#	287897
#
# Disc length: 4220 seconds
#
# Revision: 0
# Processed by: cddbd v1.5.1PL0 Copyright (c) Steve Scherf et al.
# Submitted via: CDex 1.51
#
DISCID=ac107a0c
DTITLE=Various Artist - 2005 PLATINUM compilation vol.1 Jazz
DYEAR=2005
DGENRE=Jazz
TTITLE0=Eddie Higgins Trip: Into the Memory
TTITLE1=Massimo Farao Trio: Adagio In G Minor
TTITLE2=Curtis Fuller: I Didn't Know What Time It Was
TTITLE3=Houston Person: What a Wonderful World
TTITLE4=Luca Colombo: Here There&Everywhere
TTITLE5=David 'Fathead' Newman: Hit The Road Jack
TTITLE6=Eric Alexander: Sonrisa
TTITLE7=Joey Defrancesco: Perdigo
TTITLE8=Houton Person&Ron Carter: I Remember Clifford
TTITLE9=Maceo Parker: What A Wonderful World
TTITLE10=Eric Reed: Yesterday
TTITLE11=Rene Marie: Blackbird
EXTD=YEAR: 2005
EXTT0=
EXTT1=
EXTT2=
EXTT3=
EXTT4=
EXTT5=
EXTT6=
EXTT7=
EXTT8=
EXTT9=
EXTT10=
EXTT11=
PLAYORDER=
